<?xml version="1.0" encoding="us-ascii" standalone="no"?><svg xmlns="http://www.w3.org/2000/svg" xmlns:xlink="http://www.w3.org/1999/xlink" contentStyleType="text/css" height="1352.0833px" preserveAspectRatio="none" style="width:2079px;height:1352px;background:#222222;" version="1.1" viewBox="0 0 2079 1352" width="2079.1667px" zoomAndPan="magnify"><defs/><g><rect fill="#222222" height="1352.0833" style="stroke:none;stroke-width:1.0416666666666667;" width="2079.1667" x="0" y="0"/><!--cluster LoggedInMenu--><g id="cluster_LoggedInMenu"><path d="M58.3333,147.9167 L846.875,147.9167 A4.1667,4.1667 0 0 1 851.0417,152.0833 L851.0417,177.4673 L54.1667,177.4673 L54.1667,152.0833 A4.1667,4.1667 0 0 1 58.3333,147.9167 " fill="#113355" style="stroke:#113355;stroke-width:1.0416666666666667;"/><rect fill="none" height="919.2708" rx="4.1667" ry="4.1667" style="stroke:#55B2DE;stroke-width:1.0416666666666667;" width="796.875" x="54.1667" y="147.9167"/><line style="stroke:#55B2DE;stroke-width:1.0416666666666667;" x1="54.1667" x2="851.0417" y1="177.4673" y2="177.4673"/><text fill="#777777" font-family="Verdana" font-size="11.4583" lengthAdjust="spacing" textLength="86.4583" x="409.375" y="169.8532">LoggedInMenu</text></g><text fill="#2A9FD6" font-family="Verdana" font-size="12.5" lengthAdjust="spacing" textLength="41.6667" x="811.4583" y="1091.213">logout</text><ellipse cx="832.2917" cy="1067.1875" fill="none" rx="6.25" ry="6.25" style="stroke:#55B2DE;stroke-width:1.5625;"/><line style="stroke:#55B2DE;stroke-width:1.5625;" x1="836.8636" x2="828.7614" y1="1071.7595" y2="1063.6572"/><line style="stroke:#55B2DE;stroke-width:1.5625;" x1="836.8636" x2="828.7614" y1="1063.6572" y2="1071.7595"/><g id="elem_loginChoice"><polygon fill="none" points="207.2917,340.625,219.7917,353.125,207.2917,365.625,194.7917,353.125,207.2917,340.625" style="stroke:#777777;stroke-width:1.0416666666666667;"/></g><ellipse cx="207.2917" cy="210.4167" fill="#55B2DE" rx="10.4167" ry="10.4167" style="stroke:none;stroke-width:1.0416666666666667;"/><path d="M378.125,477.6042 L721.3542,477.6042 A4.1667,4.1667 0 0 1 725.5208,481.7708 L725.5208,512.3632 L373.9583,512.3632 L373.9583,481.7708 A4.1667,4.1667 0 0 1 378.125,477.6042 " fill="#113355" style="stroke:#113355;stroke-width:1.0416666666666667;"/><rect fill="none" height="321.6014" rx="4.1667" ry="4.1667" style="stroke:#55B2DE;stroke-width:1.0416666666666667;" width="351.5625" x="373.9583" y="477.6042"/><line style="stroke:#55B2DE;stroke-width:1.0416666666666667;" x1="373.9583" x2="725.5208" y1="512.3632" y2="512.3632"/><text fill="#777777" font-family="Verdana" font-size="11.4583" lengthAdjust="spacing" textLength="58.3333" x="520.5729" y="499.5407">UserMenu</text><g id="elem_userChoice"><polygon fill="none" points="510.9375,523.8215,523.4375,536.3215,510.9375,548.8215,498.4375,536.3215,510.9375,523.8215" style="stroke:#777777;stroke-width:1.0416666666666667;"/></g><g id="LoggedInMenu.UserMenu.ChildMenu"><rect fill="#113355" height="55.5923" rx="4.1667" ry="4.1667" style="stroke:#55B2DE;stroke-width:1.0416666666666667;" width="92.7083" x="386.4583" y="613.4048"/><line style="stroke:#55B2DE;stroke-width:1.0416666666666667;" x1="386.4583" x2="479.1667" y1="648.1639" y2="648.1639"/><text fill="#777777" font-family="Verdana" font-size="11.4583" lengthAdjust="spacing" textLength="61.4583" x="402.0833" y="635.3414">ChildMenu</text></g><g id="LoggedInMenu.UserMenu.AdultMenu"><rect fill="#113355" height="55.5923" rx="4.1667" ry="4.1667" style="stroke:#55B2DE;stroke-width:1.0416666666666667;" width="92.7083" x="542.7083" y="613.4048"/><line style="stroke:#55B2DE;stroke-width:1.0416666666666667;" x1="542.7083" x2="635.4167" y1="648.1639" y2="648.1639"/><text fill="#777777" font-family="Verdana" font-size="11.4583" lengthAdjust="spacing" textLength="61.4583" x="558.3333" y="635.3414">AdultMenu</text></g><g id="LoggedInMenu.UserMenu.AddTutor"><rect fill="none" height="55.5923" rx="4.1667" ry="4.1667" style="stroke:#55B2DE;stroke-width:1.0416666666666667;" width="85.4167" x="546.3542" y="733.1965"/><line style="stroke:#55B2DE;stroke-width:1.0416666666666667;" x1="546.3542" x2="631.7708" y1="767.9555" y2="767.9555"/><text fill="#777777" font-family="Verdana" font-size="11.4583" lengthAdjust="spacing" textLength="54.1667" x="561.9792" y="755.1331">AddTutor</text></g><!--link userChoice to ChildMenu--><g id="link_userChoice_ChildMenu"><path d="M499.9375,537.9986 C482.5104,539.6757 449,545.7173 433.8542,567.5715 C425.8333,579.1548 424.6354,594.4778 425.8229,608.0403 " fill="none" id="userChoice-to-ChildMenu" style="stroke:#2A9FD6;stroke-width:3.125;"/><polygon fill="#2A9FD6" points="426.4167,613.3423,429.5411,603.5705,425.8513,608.1648,421.257,604.475,426.4167,613.3423" style="stroke:#2A9FD6;stroke-width:3.125;"/><text fill="#FFFFFF" font-family="Verdana" font-size="12.5" lengthAdjust="spacing" textLength="119.7917" x="440.1042" y="586.3887">[user type = child]</text></g><!--link userChoice to AdultMenu--><g id="link_userChoice_AdultMenu"><path d="M520.1667,540.0194 C532.4167,544.009 553.9271,552.7173 566.1458,567.5715 C575.5313,578.9882 581.0938,594.2903 584.3854,607.884 " fill="none" id="userChoice-to-AdultMenu" style="stroke:#2A9FD6;stroke-width:3.125;"/><polygon fill="#2A9FD6" points="585.5729,613.1965,587.6004,603.1396,584.4399,608.1129,579.4666,604.9524,585.5729,613.1965" style="stroke:#2A9FD6;stroke-width:3.125;"/><text fill="#FFFFFF" font-family="Verdana" font-size="12.5" lengthAdjust="spacing" textLength="123.9583" x="585.9375" y="586.3887">[user type = adult]</text></g><!--link AdultMenu to AddTutor--><g id="link_AdultMenu_AddTutor"><path d="M553.5208,668.9257 C548.4896,674.4361 544.0417,680.634 541.1458,687.3632 C536.3854,698.4153 536.3854,703.3944 541.1458,714.4465 C543.3646,719.6028 546.4896,724.4361 550.0938,728.8944 " fill="none" id="AdultMenu-to-AddTutor" style="stroke:#2A9FD6;stroke-width:3.125;"/><polygon fill="#2A9FD6" points="553.5208,732.884,550.5832,723.0544,550.1313,728.9296,544.2561,728.4776,553.5208,732.884" style="stroke:#2A9FD6;stroke-width:3.125;"/><text fill="#FFFFFF" font-family="Verdana" font-size="12.5" lengthAdjust="spacing" textLength="61.4583" x="547.3958" y="706.1803">add tutor</text></g><!--link AddTutor to AdultMenu--><g id="link_AddTutor_AdultMenu"><path d="M607.4688,732.9673 C610.625,727.1028 613.4167,720.759 615.1042,714.4465 C618.2083,702.8215 618.2083,698.9882 615.1042,687.3632 C613.8646,682.7278 612.0313,678.0715 609.8958,673.6028 " fill="none" id="AddTutor-to-AdultMenu" style="stroke:#2A9FD6;stroke-width:3.125;"/><polygon fill="#2A9FD6" points="607.4688,668.8423,607.987,679.0885,609.8218,673.4888,615.4214,675.3236,607.4688,668.8423" style="stroke:#2A9FD6;stroke-width:3.125;"/><text fill="#FFFFFF" font-family="Verdana" font-size="12.5" lengthAdjust="spacing" textLength="30.2083" x="623.4375" y="706.1803">back</text></g><g id="LoggedInMenu.AdminMenu"><rect fill="#113355" height="55.5923" rx="4.1667" ry="4.1667" style="stroke:#55B2DE;stroke-width:1.0416666666666667;" width="100" x="187.5" y="610.9375"/><line style="stroke:#55B2DE;stroke-width:1.0416666666666667;" x1="187.5" x2="287.5" y1="645.6965" y2="645.6965"/><text fill="#777777" font-family="Verdana" font-size="11.4583" lengthAdjust="spacing" textLength="68.75" x="203.125" y="632.874">AdminMenu</text></g><g id="LoggedInMenu.CreateBot"><rect fill="none" height="69.518" rx="4.1667" ry="4.1667" style="stroke:#55B2DE;stroke-width:1.0416666666666667;" width="91.6667" x="79.1667" y="889.0625"/><line style="stroke:#55B2DE;stroke-width:1.0416666666666667;" x1="79.1667" x2="170.8333" y1="923.8215" y2="923.8215"/><text fill="#777777" font-family="Verdana" font-size="11.4583" lengthAdjust="spacing" textLength="60.4167" x="94.7917" y="910.999">CreateBot</text><text fill="#777777" font-family="Verdana" font-size="11.4583" lengthAdjust="spacing" textLength="35.4167" x="89.5833" y="945.7581">TODO</text></g><ellipse cx="217.7083" cy="923.9583" fill="none" rx="10.4167" ry="10.4167" style="stroke:#9933CC;stroke-width:1.0416666666666667;"/><ellipse cx="218.2292" cy="924.4792" fill="#9933CC" rx="6.25" ry="6.25" style="stroke:none;stroke-width:1.0416666666666667;"/><g id="LoggedInMenu.AddFriend"><rect fill="none" height="55.5923" rx="4.1667" ry="4.1667" style="stroke:#55B2DE;stroke-width:1.0416666666666667;" width="90.625" x="604.6875" y="896.3542"/><line style="stroke:#55B2DE;stroke-width:1.0416666666666667;" x1="604.6875" x2="695.3125" y1="931.1132" y2="931.1132"/><text fill="#777777" font-family="Verdana" font-size="11.4583" lengthAdjust="spacing" textLength="59.375" x="620.3125" y="918.2907">AddFriend</text></g><g id="LoggedInMenu.RemoveFriend"><rect fill="none" height="55.5923" rx="4.1667" ry="4.1667" style="stroke:#55B2DE;stroke-width:1.0416666666666667;" width="116.6667" x="264.5833" y="896.3542"/><line style="stroke:#55B2DE;stroke-width:1.0416666666666667;" x1="264.5833" x2="381.25" y1="931.1132" y2="931.1132"/><text fill="#777777" font-family="Verdana" font-size="11.4583" lengthAdjust="spacing" textLength="85.4167" x="280.2083" y="918.2907">RemoveFriend</text></g><g id="LoggedInMenu.GetGame"><rect fill="none" height="55.5923" rx="4.1667" ry="4.1667" style="stroke:#55B2DE;stroke-width:1.0416666666666667;" width="87.5" x="488.5417" y="325.5208"/><line style="stroke:#55B2DE;stroke-width:1.0416666666666667;" x1="488.5417" x2="576.0417" y1="360.2798" y2="360.2798"/><text fill="#777777" font-family="Verdana" font-size="11.4583" lengthAdjust="spacing" textLength="56.25" x="504.1667" y="347.4574">GetGame</text></g><g id="LoggedInMenu.OfferGame"><rect fill="none" height="69.518" rx="4.1667" ry="4.1667" style="stroke:#55B2DE;stroke-width:1.0416666666666667;" width="96.875" x="685.9375" y="318.2292"/><line style="stroke:#55B2DE;stroke-width:1.0416666666666667;" x1="685.9375" x2="782.8125" y1="352.9882" y2="352.9882"/><text fill="#777777" font-family="Verdana" font-size="11.4583" lengthAdjust="spacing" textLength="65.625" x="701.5625" y="340.1657">OfferGame</text><text fill="#777777" font-family="Verdana" font-size="11.4583" lengthAdjust="spacing" textLength="35.4167" x="696.3542" y="374.9247">TODO</text></g><g id="LoggedInMenu.ConfirmationScreen"><rect fill="none" height="55.5923" rx="4.1667" ry="4.1667" style="stroke:#55B2DE;stroke-width:1.0416666666666667;" width="150" x="417.7083" y="896.3542"/><line style="stroke:#55B2DE;stroke-width:1.0416666666666667;" x1="417.7083" x2="567.7083" y1="931.1132" y2="931.1132"/><text fill="#777777" font-family="Verdana" font-size="11.4583" lengthAdjust="spacing" textLength="118.75" x="433.3333" y="918.2907">ConfirmationScreen</text></g><g id="ShowUserInfoMenu"><rect fill="none" height="55.5923" rx="4.1667" ry="4.1667" style="stroke:#55B2DE;stroke-width:1.0416666666666667;" width="145.8333" x="1311.4583" y="325.5208"/><line style="stroke:#55B2DE;stroke-width:1.0416666666666667;" x1="1311.4583" x2="1457.2917" y1="360.2798" y2="360.2798"/><text fill="#777777" font-family="Verdana" font-size="11.4583" lengthAdjust="spacing" textLength="114.5833" x="1327.0833" y="347.4574">ShowUserInfoMenu</text></g><g id="ShowGameInfoMenu"><rect fill="none" height="55.5923" rx="4.1667" ry="4.1667" style="stroke:#55B2DE;stroke-width:1.0416666666666667;" width="154.1667" x="1493.75" y="325.5208"/><line style="stroke:#55B2DE;stroke-width:1.0416666666666667;" x1="1493.75" x2="1647.9167" y1="360.2798" y2="360.2798"/><text fill="#777777" font-family="Verdana" font-size="11.4583" lengthAdjust="spacing" textLength="122.9167" x="1509.375" y="347.4574">ShowGameInfoMenu</text></g><g id="AddPlayer"><rect fill="none" height="55.5923" rx="4.1667" ry="4.1667" style="stroke:#55B2DE;stroke-width:1.0416666666666667;" width="91.6667" x="1183.3333" y="325.5208"/><line style="stroke:#55B2DE;stroke-width:1.0416666666666667;" x1="1183.3333" x2="1275" y1="360.2798" y2="360.2798"/><text fill="#777777" font-family="Verdana" font-size="11.4583" lengthAdjust="spacing" textLength="60.4167" x="1198.9583" y="347.4574">AddPlayer</text></g><ellipse cx="27.0833" cy="1067.1875" fill="#55B2DE" rx="10.4167" ry="10.4167" style="stroke:none;stroke-width:1.0416666666666667;"/><g id="MainMenu"><rect fill="none" height="55.5923" rx="4.1667" ry="4.1667" style="stroke:#55B2DE;stroke-width:1.0416666666666667;" width="89.5833" x="1639.5833" y="1175.5208"/><line style="stroke:#55B2DE;stroke-width:1.0416666666666667;" x1="1639.5833" x2="1729.1667" y1="1210.2798" y2="1210.2798"/><text fill="#777777" font-family="Verdana" font-size="11.4583" lengthAdjust="spacing" textLength="58.3333" x="1655.2083" y="1197.4574">MainMenu</text></g><g id="Login"><rect fill="none" height="55.5923" rx="4.1667" ry="4.1667" style="stroke:#55B2DE;stroke-width:1.0416666666666667;" width="62.5" x="1876.0417" y="17.7083"/><line style="stroke:#55B2DE;stroke-width:1.0416666666666667;" x1="1876.0417" x2="1938.5417" y1="52.4673" y2="52.4673"/><text fill="#777777" font-family="Verdana" font-size="11.4583" lengthAdjust="spacing" textLength="31.25" x="1891.6667" y="39.6449">Login</text></g><ellipse cx="1684.375" cy="1330.7292" fill="none" rx="10.4167" ry="10.4167" style="stroke:#9933CC;stroke-width:1.0416666666666667;"/><ellipse cx="1684.8958" cy="1331.25" fill="#9933CC" rx="6.25" ry="6.25" style="stroke:none;stroke-width:1.0416666666666667;"/><g id="Play"><rect fill="none" height="55.5923" rx="4.1667" ry="4.1667" style="stroke:#55B2DE;stroke-width:1.0416666666666667;" width="56.25" x="975" y="325.5208"/><line style="stroke:#55B2DE;stroke-width:1.0416666666666667;" x1="975" x2="1031.25" y1="360.2798" y2="360.2798"/><text fill="#777777" font-family="Verdana" font-size="11.4583" lengthAdjust="spacing" textLength="25" x="990.625" y="347.4574">Play</text></g><g id="elem_GMN62"><path d="M975.5208,196.3542 L975.5208,224.0458 A4.1667,4.1667 0 0 0 979.6875,228.2125 L1320.3125,228.2125 A4.1667,4.1667 0 0 0 1324.4792,224.0458 L1324.4792,202.6042 L1314.0625,192.1875 L979.6875,192.1875 A4.1667,4.1667 0 0 0 975.5208,196.3542 " fill="none" style="stroke:#AD5CD6;stroke-width:1.0416666666666667;"/><path d="M1314.0625,192.1875 L1314.0625,200.5208 A2.0833,2.0833 0 0 0 1316.1458,202.6042 L1324.4792,202.6042 L1314.0625,192.1875 " fill="none" style="stroke:#AD5CD6;stroke-width:1.0416666666666667;"/><text fill="#AD5CD6" font-family="Verdana" font-size="12.5" lengthAdjust="spacing" textLength="82.2917" x="986.9792" y="215.1713">An exit point</text><text fill="#AD5CD6" font-family="Verdana" font-size="12.5" font-weight="bold" lengthAdjust="spacing" textLength="39.5833" x="1073.4375" y="215.1713">MUST</text><text fill="#AD5CD6" font-family="Verdana" font-size="12.5" lengthAdjust="spacing" textLength="186.4583" x="1117.1875" y="215.1713">be taken to leave this state.</text></g><g id="ShowUserInfo"><rect fill="none" height="83.4437" rx="4.1667" ry="4.1667" style="stroke:#55B2DE;stroke-width:1.0416666666666667;" width="304.1667" x="1294.7917" y="596.875"/><line style="stroke:#55B2DE;stroke-width:1.0416666666666667;" x1="1294.7917" x2="1598.9583" y1="631.634" y2="631.634"/><text fill="#777777" font-family="Verdana" font-size="11.4583" lengthAdjust="spacing" textLength="83.3333" x="1405.2083" y="618.8115">ShowUserInfo</text><text fill="#777777" font-family="Verdana" font-size="11.4583" font-weight="bold" lengthAdjust="spacing" textLength="36.4583" x="1305.2083" y="653.5706">Entry</text><text fill="#777777" font-family="Verdana" font-size="11.4583" lengthAdjust="spacing" textLength="232.2917" x="1345.8333" y="653.5706">[user type = admin or adult] / show all</text><text fill="#777777" font-family="Verdana" font-size="11.4583" font-weight="bold" lengthAdjust="spacing" textLength="36.4583" x="1305.2083" y="667.4962">Entry</text><text fill="#777777" font-family="Verdana" font-size="11.4583" lengthAdjust="spacing" textLength="215.625" x="1345.8333" y="667.4962">[user type = child] / show restricted</text></g><g id="PrintGameInfo"><rect fill="none" height="55.5923" rx="4.1667" ry="4.1667" style="stroke:#55B2DE;stroke-width:1.0416666666666667;" width="117.7083" x="1640.1042" y="610.9375"/><line style="stroke:#55B2DE;stroke-width:1.0416666666666667;" x1="1640.1042" x2="1757.8125" y1="645.6965" y2="645.6965"/><text fill="#777777" font-family="Verdana" font-size="11.4583" lengthAdjust="spacing" textLength="86.4583" x="1655.7292" y="632.874">PrintGameInfo</text></g><g id="ChooseFriend"><rect fill="none" height="55.5923" rx="4.1667" ry="4.1667" style="stroke:#55B2DE;stroke-width:1.0416666666666667;" width="112.5" x="1145.8333" y="610.9375"/><line style="stroke:#55B2DE;stroke-width:1.0416666666666667;" x1="1145.8333" x2="1258.3333" y1="645.6965" y2="645.6965"/><text fill="#777777" font-family="Verdana" font-size="11.4583" lengthAdjust="spacing" textLength="81.25" x="1161.4583" y="632.874">ChooseFriend</text></g><g id="Playing"><rect fill="none" height="55.5923" rx="4.1667" ry="4.1667" style="stroke:#55B2DE;stroke-width:1.0416666666666667;" width="73.9583" x="1165.1042" y="896.3542"/><line style="stroke:#55B2DE;stroke-width:1.0416666666666667;" x1="1165.1042" x2="1239.0625" y1="931.1132" y2="931.1132"/><text fill="#777777" font-family="Verdana" font-size="11.4583" lengthAdjust="spacing" textLength="42.7083" x="1180.7292" y="918.2907">Playing</text></g><!--link *start* to MainMenu--><g id="link_*start*_MainMenu"><path d="M29.4375,1077.5729 C32.0104,1085.6875 37,1096.9896 45.8333,1102.6042 C182.8229,1189.6458 1373.5208,1200.5521 1634.1146,1201.8958 " fill="none" id="*start*-to-MainMenu" style="stroke:#2A9FD6;stroke-width:3.125;"/><polygon fill="#2A9FD6" points="1639.3646,1201.9271,1630.0135,1197.7069,1634.1563,1201.8973,1629.9659,1206.0401,1639.3646,1201.9271" style="stroke:#2A9FD6;stroke-width:3.125;"/><text fill="#FFFFFF" font-family="Verdana" font-size="12.5" lengthAdjust="spacing" textLength="19.7917" x="215.625" y="1136.0046">init</text></g><!--link MainMenu to Login--><g id="link_MainMenu_Login"><path d="M1729.4792,1198.2083 C1781.3125,1192.3125 1867.7917,1177.9583 1934.375,1144.2708 C1980.6563,1120.8542 2022.9167,1120.1042 2022.9167,1068.2292 C2022.9167,209.375 2022.9167,209.375 2022.9167,209.375 C2022.9167,153.1875 1976.6563,102.8646 1942.6667,73.4583 " fill="none" id="MainMenu-to-Login" style="stroke:#2A9FD6;stroke-width:3.125;"/><polygon fill="#2A9FD6" points="1938.5833,69.9792,1943.027,79.2261,1942.5514,73.3528,1948.4247,72.8772,1938.5833,69.9792" style="stroke:#2A9FD6;stroke-width:3.125;"/><text fill="#FFFFFF" font-family="Verdana" font-size="12.5" lengthAdjust="spacing" textLength="31.25" x="2029.1667" y="643.8171">login</text></g><!--link Login to MainMenu--><g id="link_Login_MainMenu"><path d="M1907.2917,73.1771 C1907.2917,105.4896 1907.2917,161.4063 1907.2917,209.375 C1907.2917,209.375 1907.2917,209.375 1907.2917,1068.2292 C1907.2917,1148.25 1800.4063,1181.6354 1734.6563,1194.5938 " fill="none" id="Login-to-MainMenu" style="stroke:#2A9FD6;stroke-width:3.125;"/><polygon fill="#2A9FD6" points="1729.2188,1195.6458,1739.2109,1197.9714,1734.3338,1194.6645,1737.6407,1189.7873,1729.2188,1195.6458" style="stroke:#2A9FD6;stroke-width:3.125;"/><text fill="#FFFFFF" font-family="Verdana" font-size="12.5" lengthAdjust="spacing" textLength="30.2083" x="1913.5417" y="643.8171">back</text></g><!--link MainMenu to *end*--><g id="link_MainMenu_*end*"><path d="M1684.375,1230.7813 C1684.375,1256.4375 1684.375,1294.3125 1684.375,1314.9583 " fill="none" id="MainMenu-to-*end*" style="stroke:#2A9FD6;stroke-width:3.125;"/><polygon fill="#2A9FD6" points="1684.375,1320.3021,1688.5417,1310.9271,1684.375,1315.0938,1680.2083,1310.9271,1684.375,1320.3021" style="stroke:#2A9FD6;stroke-width:3.125;"/><text fill="#FFFFFF" font-family="Verdana" font-size="12.5" lengthAdjust="spacing" textLength="25" x="1690.625" y="1280.7963">quit</text></g><!--link Login to LoggedInMenu--><g id="link_Login_LoggedInMenu"><path d="M1875.5938,47.2813 C1730.75,51.8229 1131.4896,74.3125 957.2917,139.5833 C908.8125,157.75 862.3646,206.2188 859.5104,209.2292 " fill="none" id="Login-to-LoggedInMenu" style="stroke:#2A9FD6;stroke-width:3.125;"/><polygon fill="#2A9FD6" points="859.5104,209.2292,868.9843,205.2926,863.0939,205.4495,862.9369,199.5591,859.5104,209.2292" style="stroke:#2A9FD6;stroke-width:3.125;"/><text fill="#FFFFFF" font-family="Verdana" font-size="12.5" lengthAdjust="spacing" textLength="137.5" x="1116.6667" y="122.9838">logged in [user type]</text></g><!--link *start*LoggedInMenu to loginChoice--><g id="link_*start*LoggedInMenu_loginChoice"><path d="M207.2917,221.125 C207.2917,244.625 207.2917,305.0208 207.2917,334.8646 " fill="none" id="*start*LoggedInMenu-to-loginChoice" style="stroke:#2A9FD6;stroke-width:3.125;"/><polygon fill="#2A9FD6" points="207.2917,340.4063,211.4583,331.0313,207.2917,335.1979,203.125,331.0313,207.2917,340.4063" style="stroke:#2A9FD6;stroke-width:3.125;"/></g><!--link loginChoice to UserMenu--><g id="link_loginChoice_UserMenu"><path d="M213.8333,359.5729 C234.5208,376.6771 301.2292,431.8229 369.8229,488.5417 " fill="none" id="loginChoice-to-UserMenu" style="stroke:#2A9FD6;stroke-width:3.125;"/><polygon fill="#2A9FD6" points="373.9271,491.9271,369.3521,482.7444,369.9113,488.6104,364.0454,489.1696,373.9271,491.9271" style="stroke:#2A9FD6;stroke-width:3.125;"/><text fill="#FFFFFF" font-family="Verdana" font-size="12.5" lengthAdjust="spacing" textLength="119.7917" x="323.9583" y="438.088">[user type = user]</text></g><!--link loginChoice to AdminMenu--><g id="link_loginChoice_AdminMenu"><path d="M198.6354,356.9688 C178.9688,363.875 131.1875,383.7604 112.5,419.2708 C106.8958,429.9271 109.0625,434.8229 112.5,446.3542 C131.2708,509.3438 178.1354,570.9063 208.8542,606.4688 " fill="none" id="loginChoice-to-AdminMenu" style="stroke:#2A9FD6;stroke-width:3.125;"/><polygon fill="#2A9FD6" points="212.5104,610.6771,209.4937,600.8714,209.0891,606.7501,203.2105,606.3454,212.5104,610.6771" style="stroke:#2A9FD6;stroke-width:3.125;"/><text fill="#FFFFFF" font-family="Verdana" font-size="12.5" lengthAdjust="spacing" textLength="130.2083" x="118.75" y="438.088">[user type = admin]</text></g><!--link AdminMenu to logout--><g id="link_AdminMenu_logout"><path d="M248.5625,666.1667 C265.5938,703.3125 302.0625,769.5729 356.25,799.4792 C435.7292,843.3438 699.5104,766.3854 763.5417,830.7292 C786.3021,853.5938 763.75,944.9167 773.9583,975.5208 C784.9063,1008.3333 810.4583,1041.0208 823.8229,1056.6458 " fill="none" id="AdminMenu-to-logout" style="stroke:#2A9FD6;stroke-width:3.125;"/><polygon fill="#2A9FD6" points="827.5417,1060.9271,824.525,1051.1214,824.1204,1057.0001,818.2417,1056.5954,827.5417,1060.9271" style="stroke:#2A9FD6;stroke-width:3.125;"/><text fill="#FFFFFF" font-family="Verdana" font-size="12.5" lengthAdjust="spacing" textLength="41.6667" x="780.2083" y="929.2338">logout</text></g><!--link AdminMenu to CreateBot--><g id="link_AdminMenu_CreateBot"><path d="M212.5104,666.4063 C182,701.1771 132.0313,765.1771 112.5,830.7292 C107.4896,847.5521 108.9896,866.7188 112.3646,883.1979 " fill="none" id="AdminMenu-to-CreateBot" style="stroke:#2A9FD6;stroke-width:3.125;"/><polygon fill="#2A9FD6" points="113.5833,888.6667,115.6171,878.611,112.4535,883.5824,107.4822,880.4188,113.5833,888.6667" style="stroke:#2A9FD6;stroke-width:3.125;"/><text fill="#FFFFFF" font-family="Verdana" font-size="12.5" lengthAdjust="spacing" textLength="67.7083" x="118.75" y="849.5463">create bot</text></g><!--link CreateBot to AdminMenu--><g id="link_CreateBot_AdminMenu"><path d="M170.8958,889.5833 C180.8229,880.3438 190.3021,869.5729 196.875,857.8125 C230.2813,798 236.8854,716.0208 237.8021,671.5104 " fill="none" id="CreateBot-to-AdminMenu" style="stroke:#2A9FD6;stroke-width:3.125;"/><polygon fill="#2A9FD6" points="237.8854,666.2708,233.5853,675.5854,237.811,671.4786,241.9177,675.7044,237.8854,666.2708" style="stroke:#2A9FD6;stroke-width:3.125;"/><text fill="#FFFFFF" font-family="Verdana" font-size="12.5" lengthAdjust="spacing" textLength="30.2083" x="215.625" y="849.5463">back</text></g><!--link AdminMenu to *end*LoggedInMenu--><g id="link_AdminMenu_*end*LoggedInMenu"><path d="M252.7604,666.2292 C274.8229,708.5 310.0104,792.7917 281.25,857.8125 C272.8958,876.6979 261.2813,874.2708 246.875,889.0625 C240.0104,896.1042 232.8021,904.4792 227.2604,911.125 " fill="none" id="AdminMenu-to-*end*LoggedInMenu" style="stroke:#2A9FD6;stroke-width:3.125;"/><polygon fill="#2A9FD6" points="223.7188,915.4271,232.8913,910.8319,227.0266,911.404,226.4544,905.5393,223.7188,915.4271" style="stroke:#2A9FD6;stroke-width:3.125;"/></g><!--link UserMenu to AddFriend--><g id="link_UserMenu_AddFriend"><path d="M691.5833,799.5625 C696.8438,809.7396 701.4583,820.1563 705.2083,830.7292 C712.9167,852.4479 700.3333,874.6667 685.2396,891.8542 " fill="none" id="UserMenu-to-AddFriend" style="stroke:#2A9FD6;stroke-width:3.125;"/><polygon fill="#2A9FD6" points="681.3646,896.1146,690.7587,891.9913,684.8725,892.2648,684.599,886.3786,681.3646,896.1146" style="stroke:#2A9FD6;stroke-width:3.125;"/><text fill="#FFFFFF" font-family="Verdana" font-size="12.5" lengthAdjust="spacing" textLength="35.4167" x="713.5417" y="849.5463">invite</text></g><!--link AddFriend to UserMenu--><g id="link_AddFriend_UserMenu"><path d="M641.9167,896.1771 C636.2396,877.7188 628.3542,852.6354 620.8333,830.7292 C617.9792,822.4167 615.0104,813.9063 611.9792,805.3333 " fill="none" id="AddFriend-to-UserMenu" style="stroke:#2A9FD6;stroke-width:3.125;"/><polygon fill="#2A9FD6" points="610.0833,799.9896,609.289,810.218,611.8238,804.8985,617.1433,807.4333,610.0833,799.9896" style="stroke:#2A9FD6;stroke-width:3.125;"/><text fill="#FFFFFF" font-family="Verdana" font-size="12.5" lengthAdjust="spacing" textLength="30.2083" x="635.4167" y="849.5463">back</text></g><!--link UserMenu to RemoveFriend--><g id="link_UserMenu_RemoveFriend"><path d="M373.8333,772.5417 C358.1146,790.5625 344.1042,810.0417 333.3333,830.7292 C323.8229,848.9792 321.2188,871.9792 320.9792,890.4375 " fill="none" id="UserMenu-to-RemoveFriend" style="stroke:#2A9FD6;stroke-width:3.125;"/><polygon fill="#2A9FD6" points="320.9792,896.0104,325.1458,886.6354,320.9792,890.8021,316.8125,886.6354,320.9792,896.0104" style="stroke:#2A9FD6;stroke-width:3.125;"/><text fill="#FFFFFF" font-family="Verdana" font-size="12.5" lengthAdjust="spacing" textLength="35.4167" x="339.5833" y="849.5463">invite</text></g><!--link RemoveFriend to UserMenu--><g id="link_RemoveFriend_UserMenu"><path d="M349.8125,896.3438 C361.125,884.8021 374.2396,870.9375 385.4167,857.8125 C400.0833,840.6042 414.9792,822.2396 429.5313,803.75 " fill="none" id="RemoveFriend-to-UserMenu" style="stroke:#2A9FD6;stroke-width:3.125;"/><polygon fill="#2A9FD6" points="432.8333,799.5521,423.7742,804.367,429.6234,803.6537,430.3367,809.5029,432.8333,799.5521" style="stroke:#2A9FD6;stroke-width:3.125;"/><text fill="#FFFFFF" font-family="Verdana" font-size="12.5" lengthAdjust="spacing" textLength="30.2083" x="410.4167" y="849.5463">back</text></g><!--reverse link GetGame to UserMenu--><g id="link_GetGame_UserMenu"><path d="M494.5313,384.6667 C484.9583,394.5833 475.9479,406.3958 470.8333,419.2708 C466.3854,430.4583 468.4896,434.5521 470.8333,446.3542 C472.8854,456.6563 475.5,467.1042 478.5208,477.5208 " fill="none" id="GetGame-backto-UserMenu" style="stroke:#2A9FD6;stroke-width:3.125;"/><polygon fill="#2A9FD6" points="498.3646,380.8229,488.7966,384.5251,494.6892,384.5132,494.7011,390.4057,498.3646,380.8229" style="stroke:#2A9FD6;stroke-width:3.125;"/><text fill="#FFFFFF" font-family="Verdana" font-size="12.5" lengthAdjust="spacing" textLength="62.5" x="477.0833" y="438.088">get game</text></g><!--link GetGame to UserMenu--><g id="link_GetGame_UserMenu"><path d="M541.2396,380.7604 C544.7188,392.4271 548.2813,406.3854 550,419.2708 C552.2708,436.2917 553.7396,454.1146 554.6146,471.9375 " fill="none" id="GetGame-to-UserMenu" style="stroke:#2A9FD6;stroke-width:3.125;"/><polygon fill="#2A9FD6" points="554.875,477.4688,558.5819,467.9026,554.6223,472.2665,550.2584,468.3069,554.875,477.4688" style="stroke:#2A9FD6;stroke-width:3.125;"/><text fill="#FFFFFF" font-family="Verdana" font-size="12.5" lengthAdjust="spacing" textLength="30.2083" x="558.3333" y="438.088">back</text></g><!--reverse link OfferGame to UserMenu--><g id="link_OfferGame_UserMenu"><path d="M694.6667,392.3021 C686.6979,400.8229 678.6875,410.0729 671.875,419.2708 C658.3854,437.5 645.3229,457.375 633.0833,477.4688 " fill="none" id="OfferGame-backto-UserMenu" style="stroke:#2A9FD6;stroke-width:3.125;"/><polygon fill="#2A9FD6" points="698.5729,388.1771,689.0975,392.1101,694.988,391.9553,695.1427,397.8459,698.5729,388.1771" style="stroke:#2A9FD6;stroke-width:3.125;"/><text fill="#FFFFFF" font-family="Verdana" font-size="12.5" lengthAdjust="spacing" textLength="70.8333" x="678.125" y="438.088">offer game</text></g><!--link OfferGame to UserMenu--><g id="link_OfferGame_UserMenu"><path d="M754.4688,388.2813 C762.25,406.0417 767.5417,427.8438 759.375,446.3542 C751.6146,463.9479 741.3438,480.625 729.5104,496.2604 " fill="none" id="OfferGame-to-UserMenu" style="stroke:#2A9FD6;stroke-width:3.125;"/><polygon fill="#2A9FD6" points="726.1354,500.6458,735.1532,495.7539,729.3103,496.517,728.5471,490.6741,726.1354,500.6458" style="stroke:#2A9FD6;stroke-width:3.125;"/><text fill="#FFFFFF" font-family="Verdana" font-size="12.5" lengthAdjust="spacing" textLength="30.2083" x="768.75" y="438.088">back</text></g><!--link UserMenu to logout--><g id="link_UserMenu_logout"><path d="M726.0833,747.5313 C756.75,772.0625 786.1875,800.0521 809.375,830.7292 C862.5104,901.0208 842.6667,1018.8854 834.8542,1055.1771 " fill="none" id="UserMenu-to-logout" style="stroke:#2A9FD6;stroke-width:3.125;"/><polygon fill="#2A9FD6" points="833.6354,1060.625,839.7647,1052.398,834.7826,1055.5446,831.636,1050.5625,833.6354,1060.625" style="stroke:#2A9FD6;stroke-width:3.125;"/><text fill="#FFFFFF" font-family="Verdana" font-size="12.5" lengthAdjust="spacing" textLength="41.6667" x="851.0417" y="929.2338">logout</text></g><!--link UserMenu to ConfirmationScreen--><g id="link_UserMenu_ConfirmationScreen"><path d="M513.4896,799.5208 C511.3229,810.0729 509.2292,820.5417 507.2917,830.7292 C503.5,850.6354 499.9271,873.0938 497.2708,890.8646 " fill="none" id="UserMenu-to-ConfirmationScreen" style="stroke:#2A9FD6;stroke-width:3.125;"/><polygon fill="#2A9FD6" points="496.4792,896.2188,501.9929,887.5671,497.2532,891.0683,493.7521,886.3286,496.4792,896.2188" style="stroke:#2A9FD6;stroke-width:3.125;"/><text fill="#FFFFFF" font-family="Verdana" font-size="12.5" lengthAdjust="spacing" textLength="96.875" x="513.5417" y="849.5463">delete account</text></g><!--link UserMenu to *end*LoggedInMenu--><g id="link_UserMenu_*end*LoggedInMenu"><path d="M373.6667,780.1563 C353.8333,796.9167 334.1354,814.0104 315.625,830.7292 C302.9896,842.1458 301.4063,846.6563 288.5417,857.8125 C271.0521,872.9792 263.7917,873.2604 246.875,889.0625 C239.6875,895.7813 232.4688,904.1458 227.0104,910.875 " fill="none" id="UserMenu-to-*end*LoggedInMenu" style="stroke:#2A9FD6;stroke-width:3.125;"/><polygon fill="#2A9FD6" points="223.5313,915.2396,232.6287,910.4975,226.774,911.1639,226.1076,905.3091,223.5313,915.2396" style="stroke:#2A9FD6;stroke-width:3.125;"/></g><!--link ConfirmationScreen to logout--><g id="link_ConfirmationScreen_logout"><path d="M539.2708,951.7604 C554.125,959.8542 570.7813,968.4479 586.4583,975.5208 C674.2292,1015.1146 784.9271,1051.1875 820.625,1062.5 " fill="none" id="ConfirmationScreen-to-logout" style="stroke:#2A9FD6;stroke-width:3.125;"/><polygon fill="#2A9FD6" points="825.6979,1064.0938,818.004,1057.3073,820.7293,1062.5318,815.5049,1065.2571,825.6979,1064.0938" style="stroke:#2A9FD6;stroke-width:3.125;"/><text fill="#FFFFFF" font-family="Verdana" font-size="12.5" lengthAdjust="spacing" textLength="46.875" x="691.6667" y="1008.9213">confirm</text></g><!--link logout to MainMenu--><g id="link_logout_MainMenu"><path d="M838.6563,1069.2292 C904.5,1079.5729 1462.0833,1167.1667 1634.0729,1194.1771 " fill="none" id="logout-to-MainMenu" style="stroke:#2A9FD6;stroke-width:3.125;"/><polygon fill="#2A9FD6" points="1639.5313,1195.0417,1630.9266,1189.4549,1634.3875,1194.224,1629.6184,1197.6849,1639.5313,1195.0417" style="stroke:#2A9FD6;stroke-width:3.125;"/><text fill="#FFFFFF" font-family="Verdana" font-size="12.5" lengthAdjust="spacing" textLength="41.6667" x="1314.5833" y="1136.0046">logout</text></g><!--link LoggedInMenu to ShowUserInfoMenu--><g id="link_LoggedInMenu_ShowUserInfoMenu"><path d="M859.5313,211.4896 C862.75,212.1667 914.8542,223.0938 957.2917,228.6458 C1037,239.0729 1247.7708,220.2604 1317.7083,259.8958 C1341.6667,273.4792 1359.3125,299.6146 1370.4063,320.6042 " fill="none" id="LoggedInMenu-to-ShowUserInfoMenu" style="stroke:#2A9FD6;stroke-width:3.125;"/><polygon fill="#2A9FD6" points="1372.8125,325.2708,1372.2027,315.0297,1370.4181,320.6455,1364.8023,318.8609,1372.8125,325.2708" style="stroke:#2A9FD6;stroke-width:3.125;"/><text fill="#FFFFFF" font-family="Verdana" font-size="12.5" lengthAdjust="spacing" textLength="96.875" x="1353.125" y="278.713">show user info</text></g><!--link LoggedInMenu to ShowGameInfoMenu--><g id="link_LoggedInMenu_ShowGameInfoMenu"><path d="M859.5313,211.4896 C862.7396,212.1979 914.7813,223.625 957.2917,228.6458 C1069.4583,241.9063 1360.0417,217.1563 1464.5833,259.8958 C1496.7188,273.0312 1525.9271,300.0104 1545.5521,321.3958 " fill="none" id="LoggedInMenu-to-ShowGameInfoMenu" style="stroke:#2A9FD6;stroke-width:3.125;"/><polygon fill="#2A9FD6" points="1549.1042,325.3229,1545.909,315.5739,1545.6118,321.459,1539.7267,321.1618,1549.1042,325.3229" style="stroke:#2A9FD6;stroke-width:3.125;"/><text fill="#FFFFFF" font-family="Verdana" font-size="12.5" lengthAdjust="spacing" textLength="104.1667" x="1512.5" y="278.713">show game info</text></g><!--link LoggedInMenu to AddPlayer--><g id="link_LoggedInMenu_AddPlayer"><path d="M859.4896,211.4792 C864.1458,212.3854 1013.5104,241.4792 1053.125,259.8958 C1071.7708,268.5625 1072.9167,276.5417 1090.625,286.9792 C1098.9271,291.8646 1142.2604,312.1042 1178.2917,328.7292 " fill="none" id="LoggedInMenu-to-AddPlayer" style="stroke:#2A9FD6;stroke-width:3.125;"/><polygon fill="#2A9FD6" points="1183.0938,330.9479,1176.3123,323.2496,1178.3604,328.7748,1172.8353,330.8229,1183.0938,330.9479" style="stroke:#2A9FD6;stroke-width:3.125;"/><text fill="#FFFFFF" font-family="Verdana" font-size="12.5" lengthAdjust="spacing" textLength="152.0833" x="1096.875" y="278.713">add player [not a child]</text></g><!--link AddPlayer to LoggedInMenu--><g id="link_AddPlayer_LoggedInMenu"><path d="M1250.5,325.3438 C1263.8646,305.1979 1275.7292,278.0313 1259.375,259.8958 C1214.1771,209.7813 1024.1354,237.9583 957.2917,228.6458 C914.8958,222.7396 862.75,212.1458 859.5313,211.4896 " fill="none" id="AddPlayer-to-LoggedInMenu" style="stroke:#2A9FD6;stroke-width:3.125;"/><polygon fill="#2A9FD6" points="859.5313,211.4896,867.8849,217.4451,864.6346,212.5301,869.5497,209.2798,859.5313,211.4896" style="stroke:#2A9FD6;stroke-width:3.125;"/><text fill="#FFFFFF" font-family="Verdana" font-size="12.5" lengthAdjust="spacing" textLength="30.2083" x="1272.9167" y="278.713">back</text></g><!--link LoggedInMenu to Play--><g id="link_LoggedInMenu_Play"><path d="M859.4792,211.5625 C862.5,214.5208 930.5938,281.125 971.9271,321.5625 " fill="none" id="LoggedInMenu-to-Play" style="stroke:#2A9FD6;stroke-width:3.125;"/><polygon fill="#2A9FD6" points="975.8333,325.3854,972.0345,315.8554,972.106,321.7476,966.2139,321.8191,975.8333,325.3854" style="stroke:#2A9FD6;stroke-width:3.125;"/><text fill="#FFFFFF" font-family="Verdana" font-size="12.5" lengthAdjust="spacing" textLength="27.0833" x="941.6667" y="278.713">play</text></g><!--link LoggedInMenu to GMN62--><g id="link_LoggedInMenu_GMN62"><path d="M859.9375,210.4167 C898.4688,210.4167 936.9896,210.4167 975.5104,210.4167 " fill="none" id="LoggedInMenu-GMN62" style="stroke:#2A9FD6;stroke-width:3.125;stroke-dasharray:7.0,7.0;"/></g><!--link ShowUserInfoMenu to ShowUserInfo--><g id="link_ShowUserInfoMenu_ShowUserInfo"><path d="M1390.25,380.8229 C1400.9063,429.0938 1423.5,531.5313 1436.6979,591.3646 " fill="none" id="ShowUserInfoMenu-to-ShowUserInfo" style="stroke:#2A9FD6;stroke-width:3.125;"/><polygon fill="#2A9FD6" points="1437.8646,596.6667,1439.8983,586.611,1436.7347,591.5824,1431.7634,588.4188,1437.8646,596.6667" style="stroke:#2A9FD6;stroke-width:3.125;"/><text fill="#FFFFFF" font-family="Verdana" font-size="12.5" lengthAdjust="spacing" textLength="46.875" x="1410.4167" y="438.088">choose</text></g><!--link ShowUserInfo to LoggedInMenu--><g id="link_ShowUserInfo_LoggedInMenu"><path d="M1419.4063,596.8021 C1383.9167,547.3854 1317.4688,464.9688 1240.625,419.2708 C1194.1042,391.6042 1170.1146,414.5104 1122.9167,388.0208 C1083.8021,366.0625 1083.0938,348.5208 1050,318.2292 C1020.9583,291.6458 1016.9896,280.3333 983.3333,259.8958 C933.5625,229.6771 861.6667,212.0208 859.4271,211.4688 " fill="none" id="ShowUserInfo-to-LoggedInMenu" style="stroke:#2A9FD6;stroke-width:3.125;"/><polygon fill="#2A9FD6" points="859.4271,211.4688,867.5323,217.7582,864.484,212.7153,869.5269,209.6671,859.4271,211.4688" style="stroke:#2A9FD6;stroke-width:3.125;"/><text fill="#FFFFFF" font-family="Verdana" font-size="12.5" lengthAdjust="spacing" textLength="30.2083" x="1129.1667" y="358.4005">back</text></g><!--link ShowGameInfoMenu to PrintGameInfo--><g id="link_ShowGameInfoMenu_PrintGameInfo"><path d="M1574.5104,380.9896 C1577.8125,399.9271 1583.7292,425.5521 1593.75,446.3542 C1601.3438,462.125 1608.3854,462.7917 1617.7083,477.6042 C1644.4896,520.1146 1669.7917,572.5729 1684.8333,605.5313 " fill="none" id="ShowGameInfoMenu-to-PrintGameInfo" style="stroke:#2A9FD6;stroke-width:3.125;"/><polygon fill="#2A9FD6" points="1687.1667,610.6563,1687.0805,600.3974,1685.0114,605.9148,1679.4941,603.8457,1687.1667,610.6563" style="stroke:#2A9FD6;stroke-width:3.125;"/><text fill="#FFFFFF" font-family="Verdana" font-size="12.5" lengthAdjust="spacing" textLength="87.5" x="1600" y="438.088">choose game</text></g><!--link PrintGameInfo to LoggedInMenu--><g id="link_PrintGameInfo_LoggedInMenu"><path d="M1705.1042,610.9063 C1720.4063,537.1771 1750.8021,330.8646 1631.25,259.8958 C1566.7917,221.625 1031.8021,236.875 957.2917,228.6458 C914.75,223.9479 862.7396,212.2188 859.5313,211.4896 " fill="none" id="PrintGameInfo-to-LoggedInMenu" style="stroke:#2A9FD6;stroke-width:3.125;"/><polygon fill="#2A9FD6" points="859.5313,211.4896,867.7497,217.6303,864.6101,212.6439,869.5965,209.5042,859.5313,211.4896" style="stroke:#2A9FD6;stroke-width:3.125;"/><text fill="#FFFFFF" font-family="Verdana" font-size="12.5" lengthAdjust="spacing" textLength="30.2083" x="1717.7083" y="358.4005">back</text></g><!--link Play to ChooseFriend--><g id="link_Play_ChooseFriend"><path d="M1013.4688,380.7292 C1022.3542,400.7917 1036.8229,427.9167 1056.25,446.3542 C1078.4792,467.4479 1095.875,456.1042 1117.7083,477.6042 C1154.8958,514.2396 1179.3854,570.7604 1191.9688,605.8646 " fill="none" id="Play-to-ChooseFriend" style="stroke:#2A9FD6;stroke-width:3.125;"/><polygon fill="#2A9FD6" points="1193.7396,610.8854,1194.5437,600.6577,1192.0038,605.9748,1186.6867,603.435,1193.7396,610.8854" style="stroke:#2A9FD6;stroke-width:3.125;"/><text fill="#FFFFFF" font-family="Verdana" font-size="12.5" lengthAdjust="spacing" textLength="101.0417" x="1062.5" y="438.088">play with friend</text></g><!--link ChooseFriend to Play--><g id="link_ChooseFriend_Play"><path d="M1207.2188,610.5938 C1214.2188,565.25 1220.9896,473.2917 1173.9583,419.2708 C1139.3021,379.4583 1107.9063,408.7708 1059.375,388.0208 C1051.5625,384.6771 1043.5313,380.4167 1036.0729,376.0521 " fill="none" id="ChooseFriend-to-Play" style="stroke:#2A9FD6;stroke-width:3.125;"/><polygon fill="#2A9FD6" points="1031.5104,373.3229,1037.418,381.7105,1035.9805,375.996,1041.695,374.5585,1031.5104,373.3229" style="stroke:#2A9FD6;stroke-width:3.125;"/><text fill="#FFFFFF" font-family="Verdana" font-size="12.5" lengthAdjust="spacing" textLength="30.2083" x="1195.8333" y="438.088">back</text></g><!--link Play to Playing--><g id="link_Play_Playing"><path d="M997.3125,380.9063 C982.9896,453.6042 952.5417,658.7708 1030.2083,799.4792 C1058.6979,851.0938 1119.0104,886.5 1160.0521,905.7396 " fill="none" id="Play-to-Playing" style="stroke:#2A9FD6;stroke-width:3.125;"/><polygon fill="#2A9FD6" points="1164.9583,908.0104,1158.1769,900.3121,1160.225,905.8373,1154.6999,907.8854,1164.9583,908.0104" style="stroke:#2A9FD6;stroke-width:3.125;"/><text fill="#FFFFFF" font-family="Verdana" font-size="12.5" lengthAdjust="spacing" textLength="85.4167" x="1036.4583" y="643.8171">play with bot</text></g><!--link ChooseFriend to Playing--><g id="link_ChooseFriend_Playing"><path d="M1202.0833,666.2396 C1202.0833,718.5521 1202.0833,834.4688 1202.0833,890.8542 " fill="none" id="ChooseFriend-to-Playing" style="stroke:#2A9FD6;stroke-width:3.125;"/><polygon fill="#2A9FD6" points="1202.0833,896.125,1206.25,886.75,1202.0833,890.9167,1197.9167,886.75,1202.0833,896.125" style="stroke:#2A9FD6;stroke-width:3.125;"/><text fill="#FFFFFF" font-family="Verdana" font-size="12.5" lengthAdjust="spacing" textLength="27.0833" x="1208.3333" y="849.5463">play</text></g><!--link Playing to LoggedInMenu--><g id="link_Playing_LoggedInMenu"><path d="M1239.4479,920.7813 C1355.7917,913.3021 1707.8333,883.9167 1776.0417,799.4792 C1814.8021,751.5 1811.9271,400.8333 1762.5,318.2292 C1738.1042,277.4583 1718.1563,274.4063 1672.9167,259.8958 C1521.3438,211.2708 1115.5313,245.9167 957.2917,228.6458 C914.7396,224 862.7396,212.2292 859.5313,211.4896 " fill="none" id="Playing-to-LoggedInMenu" style="stroke:#2A9FD6;stroke-width:3.125;"/><polygon fill="#2A9FD6" points="859.5313,211.4896,867.7307,217.6557,864.6065,212.6595,869.6026,209.5353,859.5313,211.4896" style="stroke:#2A9FD6;stroke-width:3.125;"/><text fill="#FFFFFF" font-family="Verdana" font-size="12.5" lengthAdjust="spacing" textLength="43.75" x="1800" y="438.088">played</text></g><!--SRC=[ZLTjRzf84Fw-ls8k_K1xekarLR-WN2J7c60TO6IRvg8g7uozuBqQBrqlpQ5J__lDh5-mmJaTge8zyypRixF3T31tGvY9cES5PmCsiEN-gCGsrV0sVWStlzryWgM8fHAx0g9CH0NOQQIo8mHnkXE99fibLpjH54Bc80f8kUBh8snLb6kU366ZE0UvWHZjjdm8MaAK7s7FLO46SgqZaOjy2n7469iD4AfJz5F8ZNw954Tq0b5Ho5X4w10I6HzsFDUHfe0RaV42tkgKmrLGMLozCr4I7cLi878WPQs35w5JUT2WUA6LYCd944GUPuU4igZLcTY9AWIP6qeADa2tXmABe5I7i9E9sD0tDvNj3-jC5EaG4a6-rmUDmeA4XjuXLV91AYXuXecX2u6fct9F-HaGPRydKdL5Kq6IbrJkkhK8p6XpK3a6vSOeaKYRYVaNZpL92B-HMIPVgBfOvecWeeeH7Lo8ocWjVt1JJtdikTIORfa57SF-TBYLgaYZB8CrhrZ3oCXnr2v9KGQ5nWOGKGPxgKp8yrAlJGfJ1m9l4ZvQlWDk04lV- -AEdJ5SMG6-NmtXqGsdtYe4HFZM8dm2RmBMuWd-S1VZ8JX_Bdqd2C3psS2TBsUkWq9tOSzMOtVn0FTekF2mmrtiS_GQUa0HAr-k4v2tkUFRKtorxjsP6puDsM3YXWloEl5yi61f-Q5hhsQM3ykLl_G21nCOez-5kvZu6CQPEulm6iEY39ml-0B1r9hDA1ORM2iimASKmVQMJxxxC0rXwit63Whl7SpDkfyvPIoiovvPxdm8OsjkFJZ6oaCtM1xXoWJXSUgGZ29Q-CyENMz1bTZU8lJnTOY5-c5Z- -W6pX0itms8audlpR56uXHDFEC53HTEwORuXiwn88JULu7JU8InOytGMK36fieQVStOBtZAE-ofurggxNkyJPd8EIk-YNmVgMW7zr7yRQla8KzicM6plBan7yQmPJJsHofVLWLNRhwHSvuVMkA7QCVFn5QIBBFeo1LZNtzzXlVlxs2E4uKG8snCeHchturo9hSY7q56NrqDce_W-u4i3AY6RtdYLluoyqRz_XN7W09ztFFd5leKUOqrrWMrVS2RZny_VVhy6VvXW9yIW6vfvjpUyh-5NagHwxixrjMBt4ubtRxRszWy8880TSqjY96tJKXFX9QPdJA7tscOgUTU0olPrRLqB2AIFxUpQv1rRKPtabRfOOMZwhi7O2kElkubOcBp26lPXyDwozYDmNcsXlaEOeItOUorKwxPE3kD4u0gxYUSFYsjoJqLMT93LKpovzUihEIGwLw2KLuLUKgeYT6GV0Pet7LEeIImrfHXa_2WfHfX81pnzCXQq59vdc33wK_pjw6lSZXHWkS9NRSVGlDBYCzt-2FpdwZ37d4FNDCD7y6MQzZYKn_8ssouAc6I7lk0_HtNqTiotmYrCp_n0ROSnw6Gy8mZbL4Sut3giJartuLn9sPSgajiLTJPBMmODN-Qcbv3jOe-zNB3V9-LGRI9xmFzPDNewGwlYhFEt2B4-MGUuIuWNqnZuwbkPBz5UsXN5dHahrWqyxniqBrvXg-uUz26MDwe2oEo61aiOuYizZLQEDhGahGSQChYLe9Z5cxNT_DL4Dv-MD_HHgEZRtYKk3PbFCAjgDn3wNfTCsAGN3Dspi85DTW0gPJ56NH4mPnSgwE9TZbKQMygBpzyA6cYfUh_kYYfgIthxPOd7GSzFsbbivoVKycgGefgQLrKUTrOH_Ugs-OmNqMGkXgYvBsU4NIKPXV7_pwGv8IZ1rnbsn3wfM1j-qjWlxgT1At7bqcQzalOlm00]--></g></svg>